<mxfile host="www.draw.io" modified="2020-02-29T07:34:27.070Z" agent="Mozilla/5.0 (Windows NT 10.0; Win64; x64) AppleWebKit/537.36 (KHTML, like Gecko) Chrome/80.0.3987.122 Safari/537.36" etag="7Y31zeUWE_Oua110RD0w" version="12.7.9" type="github">
  <diagram id="kfaLxgYOdh_zSxYcUJZH" name="第 1 页">
    <mxGraphModel dx="1865" dy="1668" grid="1" gridSize="10" guides="1" tooltips="1" connect="1" arrows="1" fold="1" page="1" pageScale="1" pageWidth="827" pageHeight="1169" math="0" shadow="0">
      <root>
        <mxCell id="0" />
        <mxCell id="1" parent="0" />
        <mxCell id="ssctevt2GrRyZpRtZeLH-1" value="学生" style="rounded=0;whiteSpace=wrap;html=1;" vertex="1" parent="1">
          <mxGeometry x="100" y="150" width="80" height="40" as="geometry" />
        </mxCell>
        <mxCell id="ssctevt2GrRyZpRtZeLH-2" value="资讯" style="rounded=0;whiteSpace=wrap;html=1;" vertex="1" parent="1">
          <mxGeometry x="344" y="30" width="80" height="40" as="geometry" />
        </mxCell>
        <mxCell id="ssctevt2GrRyZpRtZeLH-3" value="赛事" style="rounded=0;whiteSpace=wrap;html=1;" vertex="1" parent="1">
          <mxGeometry x="480" y="140" width="80" height="40" as="geometry" />
        </mxCell>
        <mxCell id="ssctevt2GrRyZpRtZeLH-4" value="报名" style="rhombus;whiteSpace=wrap;html=1;" vertex="1" parent="1">
          <mxGeometry x="290" y="150" width="70" height="40" as="geometry" />
        </mxCell>
        <mxCell id="ssctevt2GrRyZpRtZeLH-6" value="" style="endArrow=none;html=1;exitX=1;exitY=0.5;exitDx=0;exitDy=0;entryX=0;entryY=0.5;entryDx=0;entryDy=0;" edge="1" parent="1" source="ssctevt2GrRyZpRtZeLH-7" target="ssctevt2GrRyZpRtZeLH-4">
          <mxGeometry width="50" height="50" relative="1" as="geometry">
            <mxPoint x="390" y="180" as="sourcePoint" />
            <mxPoint x="440" y="130" as="targetPoint" />
          </mxGeometry>
        </mxCell>
        <mxCell id="ssctevt2GrRyZpRtZeLH-7" value="1" style="text;html=1;align=center;verticalAlign=middle;resizable=0;points=[];autosize=1;" vertex="1" parent="1">
          <mxGeometry x="230" y="160" width="20" height="20" as="geometry" />
        </mxCell>
        <mxCell id="ssctevt2GrRyZpRtZeLH-9" value="" style="endArrow=none;html=1;exitX=1;exitY=0.5;exitDx=0;exitDy=0;entryX=0;entryY=0.5;entryDx=0;entryDy=0;" edge="1" parent="1" source="ssctevt2GrRyZpRtZeLH-1" target="ssctevt2GrRyZpRtZeLH-7">
          <mxGeometry width="50" height="50" relative="1" as="geometry">
            <mxPoint x="180" y="170" as="sourcePoint" />
            <mxPoint x="290" y="170" as="targetPoint" />
          </mxGeometry>
        </mxCell>
        <mxCell id="ssctevt2GrRyZpRtZeLH-10" value="" style="endArrow=none;html=1;exitX=1;exitY=0.5;exitDx=0;exitDy=0;entryX=0;entryY=0.5;entryDx=0;entryDy=0;" edge="1" parent="1" source="ssctevt2GrRyZpRtZeLH-11" target="ssctevt2GrRyZpRtZeLH-3">
          <mxGeometry width="50" height="50" relative="1" as="geometry">
            <mxPoint x="260" y="180" as="sourcePoint" />
            <mxPoint x="300" y="180" as="targetPoint" />
          </mxGeometry>
        </mxCell>
        <mxCell id="ssctevt2GrRyZpRtZeLH-11" value="n" style="text;html=1;align=center;verticalAlign=middle;resizable=0;points=[];autosize=1;" vertex="1" parent="1">
          <mxGeometry x="413.5" y="150" width="20" height="20" as="geometry" />
        </mxCell>
        <mxCell id="ssctevt2GrRyZpRtZeLH-12" value="" style="endArrow=none;html=1;exitX=1;exitY=0.5;exitDx=0;exitDy=0;entryX=0;entryY=0.5;entryDx=0;entryDy=0;" edge="1" parent="1" source="ssctevt2GrRyZpRtZeLH-4" target="ssctevt2GrRyZpRtZeLH-11">
          <mxGeometry width="50" height="50" relative="1" as="geometry">
            <mxPoint x="360" y="170" as="sourcePoint" />
            <mxPoint x="480" y="160" as="targetPoint" />
          </mxGeometry>
        </mxCell>
        <mxCell id="ssctevt2GrRyZpRtZeLH-14" value="入驻表" style="rounded=0;whiteSpace=wrap;html=1;" vertex="1" parent="1">
          <mxGeometry x="450" y="270" width="80" height="40" as="geometry" />
        </mxCell>
        <mxCell id="ssctevt2GrRyZpRtZeLH-15" value="编写" style="rhombus;whiteSpace=wrap;html=1;" vertex="1" parent="1">
          <mxGeometry x="300" y="230" width="70" height="40" as="geometry" />
        </mxCell>
        <mxCell id="ssctevt2GrRyZpRtZeLH-18" value="提交" style="rhombus;whiteSpace=wrap;html=1;" vertex="1" parent="1">
          <mxGeometry x="280" y="290" width="70" height="40" as="geometry" />
        </mxCell>
        <mxCell id="ssctevt2GrRyZpRtZeLH-22" value="" style="endArrow=none;html=1;exitX=1;exitY=0.5;exitDx=0;exitDy=0;entryX=0;entryY=0.5;entryDx=0;entryDy=0;" edge="1" parent="1" source="ssctevt2GrRyZpRtZeLH-15" target="ssctevt2GrRyZpRtZeLH-14">
          <mxGeometry width="50" height="50" relative="1" as="geometry">
            <mxPoint x="190" y="180" as="sourcePoint" />
            <mxPoint x="310" y="260" as="targetPoint" />
          </mxGeometry>
        </mxCell>
        <mxCell id="ssctevt2GrRyZpRtZeLH-24" value="" style="endArrow=none;html=1;exitX=1;exitY=0.5;exitDx=0;exitDy=0;entryX=0;entryY=0.5;entryDx=0;entryDy=0;" edge="1" parent="1" source="ssctevt2GrRyZpRtZeLH-1" target="ssctevt2GrRyZpRtZeLH-15">
          <mxGeometry width="50" height="50" relative="1" as="geometry">
            <mxPoint x="180" y="170" as="sourcePoint" />
            <mxPoint x="240" y="210" as="targetPoint" />
          </mxGeometry>
        </mxCell>
        <mxCell id="ssctevt2GrRyZpRtZeLH-25" value="1" style="text;html=1;align=center;verticalAlign=middle;resizable=0;points=[];autosize=1;" vertex="1" parent="1">
          <mxGeometry x="404" y="240" width="20" height="20" as="geometry" />
        </mxCell>
        <mxCell id="ssctevt2GrRyZpRtZeLH-28" value="1" style="text;html=1;align=center;verticalAlign=middle;resizable=0;points=[];autosize=1;" vertex="1" parent="1">
          <mxGeometry x="250" y="200" width="20" height="20" as="geometry" />
        </mxCell>
        <mxCell id="ssctevt2GrRyZpRtZeLH-29" value="" style="endArrow=none;html=1;exitX=1;exitY=0.5;exitDx=0;exitDy=0;" edge="1" parent="1" source="ssctevt2GrRyZpRtZeLH-1" target="ssctevt2GrRyZpRtZeLH-18">
          <mxGeometry width="50" height="50" relative="1" as="geometry">
            <mxPoint x="190" y="180" as="sourcePoint" />
            <mxPoint x="310" y="260" as="targetPoint" />
          </mxGeometry>
        </mxCell>
        <mxCell id="ssctevt2GrRyZpRtZeLH-30" value="" style="endArrow=none;html=1;exitX=1;exitY=0.5;exitDx=0;exitDy=0;entryX=0;entryY=0.5;entryDx=0;entryDy=0;" edge="1" parent="1" source="ssctevt2GrRyZpRtZeLH-18" target="ssctevt2GrRyZpRtZeLH-14">
          <mxGeometry width="50" height="50" relative="1" as="geometry">
            <mxPoint x="190" y="180" as="sourcePoint" />
            <mxPoint x="312.56578947368416" y="307.1052631578948" as="targetPoint" />
          </mxGeometry>
        </mxCell>
        <mxCell id="ssctevt2GrRyZpRtZeLH-31" value="1" style="text;html=1;align=center;verticalAlign=middle;resizable=0;points=[];autosize=1;" vertex="1" parent="1">
          <mxGeometry x="220" y="250" width="20" height="20" as="geometry" />
        </mxCell>
        <mxCell id="ssctevt2GrRyZpRtZeLH-32" value="1" style="text;html=1;align=center;verticalAlign=middle;resizable=0;points=[];autosize=1;" vertex="1" parent="1">
          <mxGeometry x="394" y="310" width="20" height="20" as="geometry" />
        </mxCell>
        <mxCell id="ssctevt2GrRyZpRtZeLH-33" value="自查表" style="rounded=0;whiteSpace=wrap;html=1;" vertex="1" parent="1">
          <mxGeometry x="160" y="420" width="80" height="40" as="geometry" />
        </mxCell>
        <mxCell id="ssctevt2GrRyZpRtZeLH-34" value="提交" style="rhombus;whiteSpace=wrap;html=1;" vertex="1" parent="1">
          <mxGeometry x="180" y="340" width="70" height="40" as="geometry" />
        </mxCell>
        <mxCell id="ssctevt2GrRyZpRtZeLH-35" value="编写" style="rhombus;whiteSpace=wrap;html=1;" vertex="1" parent="1">
          <mxGeometry x="110" y="310" width="70" height="40" as="geometry" />
        </mxCell>
        <mxCell id="ssctevt2GrRyZpRtZeLH-37" value="" style="endArrow=none;html=1;entryX=0.5;entryY=1;entryDx=0;entryDy=0;exitX=0.5;exitY=0;exitDx=0;exitDy=0;" edge="1" parent="1" source="ssctevt2GrRyZpRtZeLH-35" target="ssctevt2GrRyZpRtZeLH-1">
          <mxGeometry width="50" height="50" relative="1" as="geometry">
            <mxPoint x="280" y="340" as="sourcePoint" />
            <mxPoint x="330" y="290" as="targetPoint" />
          </mxGeometry>
        </mxCell>
        <mxCell id="ssctevt2GrRyZpRtZeLH-38" value="" style="endArrow=none;html=1;entryX=0.5;entryY=1;entryDx=0;entryDy=0;exitX=0.375;exitY=0.02;exitDx=0;exitDy=0;exitPerimeter=0;" edge="1" parent="1" source="ssctevt2GrRyZpRtZeLH-33" target="ssctevt2GrRyZpRtZeLH-35">
          <mxGeometry width="50" height="50" relative="1" as="geometry">
            <mxPoint x="155" y="320" as="sourcePoint" />
            <mxPoint x="150" y="200" as="targetPoint" />
          </mxGeometry>
        </mxCell>
        <mxCell id="ssctevt2GrRyZpRtZeLH-39" value="" style="endArrow=none;html=1;entryX=0.5;entryY=1;entryDx=0;entryDy=0;" edge="1" parent="1" source="ssctevt2GrRyZpRtZeLH-33" target="ssctevt2GrRyZpRtZeLH-34">
          <mxGeometry width="50" height="50" relative="1" as="geometry">
            <mxPoint x="200" y="430.79999999999995" as="sourcePoint" />
            <mxPoint x="155" y="360" as="targetPoint" />
          </mxGeometry>
        </mxCell>
        <mxCell id="ssctevt2GrRyZpRtZeLH-40" value="" style="endArrow=none;html=1;entryX=0.5;entryY=1;entryDx=0;entryDy=0;exitX=0.5;exitY=0;exitDx=0;exitDy=0;" edge="1" parent="1" source="ssctevt2GrRyZpRtZeLH-34" target="ssctevt2GrRyZpRtZeLH-1">
          <mxGeometry width="50" height="50" relative="1" as="geometry">
            <mxPoint x="200" y="430.79999999999995" as="sourcePoint" />
            <mxPoint x="155" y="360" as="targetPoint" />
          </mxGeometry>
        </mxCell>
        <mxCell id="ssctevt2GrRyZpRtZeLH-41" value="1" style="text;html=1;align=center;verticalAlign=middle;resizable=0;points=[];autosize=1;" vertex="1" parent="1">
          <mxGeometry x="110" y="240" width="20" height="20" as="geometry" />
        </mxCell>
        <mxCell id="ssctevt2GrRyZpRtZeLH-42" value="1" style="text;html=1;align=center;verticalAlign=middle;resizable=0;points=[];autosize=1;" vertex="1" parent="1">
          <mxGeometry x="180" y="240" width="20" height="20" as="geometry" />
        </mxCell>
        <mxCell id="ssctevt2GrRyZpRtZeLH-43" value="n" style="text;html=1;align=center;verticalAlign=middle;resizable=0;points=[];autosize=1;" vertex="1" parent="1">
          <mxGeometry x="220" y="390" width="20" height="20" as="geometry" />
        </mxCell>
        <mxCell id="ssctevt2GrRyZpRtZeLH-44" value="n" style="text;html=1;align=center;verticalAlign=middle;resizable=0;points=[];autosize=1;" vertex="1" parent="1">
          <mxGeometry x="135" y="380" width="20" height="20" as="geometry" />
        </mxCell>
        <mxCell id="ssctevt2GrRyZpRtZeLH-45" value="评分表" style="rounded=0;whiteSpace=wrap;html=1;" vertex="1" parent="1">
          <mxGeometry y="430" width="80" height="40" as="geometry" />
        </mxCell>
        <mxCell id="ssctevt2GrRyZpRtZeLH-46" value="" style="endArrow=none;html=1;entryX=0.5;entryY=1;entryDx=0;entryDy=0;exitX=0.5;exitY=0;exitDx=0;exitDy=0;" edge="1" parent="1" source="ssctevt2GrRyZpRtZeLH-47" target="ssctevt2GrRyZpRtZeLH-1">
          <mxGeometry width="50" height="50" relative="1" as="geometry">
            <mxPoint x="50" y="280" as="sourcePoint" />
            <mxPoint x="150" y="200" as="targetPoint" />
          </mxGeometry>
        </mxCell>
        <mxCell id="ssctevt2GrRyZpRtZeLH-47" value="拥有" style="rhombus;whiteSpace=wrap;html=1;" vertex="1" parent="1">
          <mxGeometry x="20" y="300" width="70" height="40" as="geometry" />
        </mxCell>
        <mxCell id="ssctevt2GrRyZpRtZeLH-50" value="" style="endArrow=none;html=1;entryX=0.5;entryY=1;entryDx=0;entryDy=0;exitX=0.5;exitY=0;exitDx=0;exitDy=0;" edge="1" parent="1" source="ssctevt2GrRyZpRtZeLH-45" target="ssctevt2GrRyZpRtZeLH-47">
          <mxGeometry width="50" height="50" relative="1" as="geometry">
            <mxPoint x="65" y="310" as="sourcePoint" />
            <mxPoint x="150" y="200" as="targetPoint" />
          </mxGeometry>
        </mxCell>
        <mxCell id="ssctevt2GrRyZpRtZeLH-51" value="1" style="text;html=1;align=center;verticalAlign=middle;resizable=0;points=[];autosize=1;" vertex="1" parent="1">
          <mxGeometry x="60" y="240" width="20" height="20" as="geometry" />
        </mxCell>
        <mxCell id="ssctevt2GrRyZpRtZeLH-55" value="n" style="text;html=1;align=center;verticalAlign=middle;resizable=0;points=[];autosize=1;" vertex="1" parent="1">
          <mxGeometry x="60" y="390" width="20" height="20" as="geometry" />
        </mxCell>
        <mxCell id="ssctevt2GrRyZpRtZeLH-56" value="退出表" style="rounded=0;whiteSpace=wrap;html=1;" vertex="1" parent="1">
          <mxGeometry x="-180" y="390" width="80" height="40" as="geometry" />
        </mxCell>
        <mxCell id="ssctevt2GrRyZpRtZeLH-57" value="编写" style="rhombus;whiteSpace=wrap;html=1;" vertex="1" parent="1">
          <mxGeometry x="-50" y="310" width="70" height="40" as="geometry" />
        </mxCell>
        <mxCell id="ssctevt2GrRyZpRtZeLH-58" value="提交" style="rhombus;whiteSpace=wrap;html=1;" vertex="1" parent="1">
          <mxGeometry x="-120" y="290" width="70" height="40" as="geometry" />
        </mxCell>
        <mxCell id="ssctevt2GrRyZpRtZeLH-59" value="" style="endArrow=none;html=1;entryX=0;entryY=0.5;entryDx=0;entryDy=0;exitX=0.5;exitY=0;exitDx=0;exitDy=0;" edge="1" parent="1" source="ssctevt2GrRyZpRtZeLH-57" target="ssctevt2GrRyZpRtZeLH-1">
          <mxGeometry width="50" height="50" relative="1" as="geometry">
            <mxPoint x="65" y="310" as="sourcePoint" />
            <mxPoint x="150" y="200" as="targetPoint" />
          </mxGeometry>
        </mxCell>
        <mxCell id="ssctevt2GrRyZpRtZeLH-60" value="" style="endArrow=none;html=1;entryX=0;entryY=0.5;entryDx=0;entryDy=0;exitX=0.5;exitY=0;exitDx=0;exitDy=0;" edge="1" parent="1" source="ssctevt2GrRyZpRtZeLH-58" target="ssctevt2GrRyZpRtZeLH-1">
          <mxGeometry width="50" height="50" relative="1" as="geometry">
            <mxPoint x="-5" y="320" as="sourcePoint" />
            <mxPoint x="110" y="180" as="targetPoint" />
          </mxGeometry>
        </mxCell>
        <mxCell id="ssctevt2GrRyZpRtZeLH-61" value="" style="endArrow=none;html=1;entryX=0.5;entryY=1;entryDx=0;entryDy=0;exitX=0.5;exitY=0;exitDx=0;exitDy=0;" edge="1" parent="1" source="ssctevt2GrRyZpRtZeLH-56" target="ssctevt2GrRyZpRtZeLH-58">
          <mxGeometry width="50" height="50" relative="1" as="geometry">
            <mxPoint x="-75" y="300" as="sourcePoint" />
            <mxPoint x="110" y="180" as="targetPoint" />
          </mxGeometry>
        </mxCell>
        <mxCell id="ssctevt2GrRyZpRtZeLH-62" value="" style="endArrow=none;html=1;entryX=0.5;entryY=1;entryDx=0;entryDy=0;exitX=0.5;exitY=0;exitDx=0;exitDy=0;" edge="1" parent="1" source="ssctevt2GrRyZpRtZeLH-56" target="ssctevt2GrRyZpRtZeLH-57">
          <mxGeometry width="50" height="50" relative="1" as="geometry">
            <mxPoint x="-130" y="400" as="sourcePoint" />
            <mxPoint x="-75" y="340" as="targetPoint" />
          </mxGeometry>
        </mxCell>
        <mxCell id="ssctevt2GrRyZpRtZeLH-63" value="1" style="text;html=1;align=center;verticalAlign=middle;resizable=0;points=[];autosize=1;" vertex="1" parent="1">
          <mxGeometry x="-30" y="220" width="20" height="20" as="geometry" />
        </mxCell>
        <mxCell id="ssctevt2GrRyZpRtZeLH-64" value="1" style="text;html=1;align=center;verticalAlign=middle;resizable=0;points=[];autosize=1;" vertex="1" parent="1">
          <mxGeometry x="-10" y="260" width="20" height="20" as="geometry" />
        </mxCell>
        <mxCell id="ssctevt2GrRyZpRtZeLH-65" value="n" style="text;html=1;align=center;verticalAlign=middle;resizable=0;points=[];autosize=1;" vertex="1" parent="1">
          <mxGeometry x="-60" y="370" width="20" height="20" as="geometry" />
        </mxCell>
        <mxCell id="ssctevt2GrRyZpRtZeLH-66" value="n" style="text;html=1;align=center;verticalAlign=middle;resizable=0;points=[];autosize=1;" vertex="1" parent="1">
          <mxGeometry x="-140" y="340" width="20" height="20" as="geometry" />
        </mxCell>
        <mxCell id="ssctevt2GrRyZpRtZeLH-67" value="文件" style="rounded=0;whiteSpace=wrap;html=1;" vertex="1" parent="1">
          <mxGeometry x="-310" y="320" width="80" height="40" as="geometry" />
        </mxCell>
        <mxCell id="ssctevt2GrRyZpRtZeLH-68" value="上传" style="rhombus;whiteSpace=wrap;html=1;" vertex="1" parent="1">
          <mxGeometry x="-180" y="230" width="70" height="40" as="geometry" />
        </mxCell>
        <mxCell id="ssctevt2GrRyZpRtZeLH-69" value="" style="endArrow=none;html=1;entryX=0;entryY=0.5;entryDx=0;entryDy=0;exitX=1;exitY=0.5;exitDx=0;exitDy=0;" edge="1" parent="1" source="ssctevt2GrRyZpRtZeLH-68" target="ssctevt2GrRyZpRtZeLH-1">
          <mxGeometry width="50" height="50" relative="1" as="geometry">
            <mxPoint x="-75" y="300" as="sourcePoint" />
            <mxPoint x="110" y="180" as="targetPoint" />
          </mxGeometry>
        </mxCell>
        <mxCell id="ssctevt2GrRyZpRtZeLH-70" value="" style="endArrow=none;html=1;entryX=0;entryY=0.5;entryDx=0;entryDy=0;exitX=0.5;exitY=0;exitDx=0;exitDy=0;" edge="1" parent="1" source="ssctevt2GrRyZpRtZeLH-67" target="ssctevt2GrRyZpRtZeLH-68">
          <mxGeometry width="50" height="50" relative="1" as="geometry">
            <mxPoint x="-110" y="260" as="sourcePoint" />
            <mxPoint x="110" y="180" as="targetPoint" />
          </mxGeometry>
        </mxCell>
        <mxCell id="ssctevt2GrRyZpRtZeLH-71" value="1" style="text;html=1;align=center;verticalAlign=middle;resizable=0;points=[];autosize=1;" vertex="1" parent="1">
          <mxGeometry x="-50" y="200" width="20" height="20" as="geometry" />
        </mxCell>
        <mxCell id="ssctevt2GrRyZpRtZeLH-72" value="1" style="text;html=1;align=center;verticalAlign=middle;resizable=0;points=[];autosize=1;" vertex="1" parent="1">
          <mxGeometry x="-250" y="250" width="20" height="20" as="geometry" />
        </mxCell>
        <mxCell id="ssctevt2GrRyZpRtZeLH-73" value="下载" style="rhombus;whiteSpace=wrap;html=1;" vertex="1" parent="1">
          <mxGeometry x="-220" y="190" width="70" height="40" as="geometry" />
        </mxCell>
        <mxCell id="ssctevt2GrRyZpRtZeLH-74" value="" style="endArrow=none;html=1;exitX=1;exitY=0.5;exitDx=0;exitDy=0;" edge="1" parent="1" source="ssctevt2GrRyZpRtZeLH-73">
          <mxGeometry width="50" height="50" relative="1" as="geometry">
            <mxPoint x="-100" y="260" as="sourcePoint" />
            <mxPoint x="100" y="170" as="targetPoint" />
          </mxGeometry>
        </mxCell>
        <mxCell id="ssctevt2GrRyZpRtZeLH-75" value="" style="endArrow=none;html=1;exitX=0.5;exitY=0;exitDx=0;exitDy=0;entryX=0;entryY=1;entryDx=0;entryDy=0;" edge="1" parent="1" source="ssctevt2GrRyZpRtZeLH-67" target="ssctevt2GrRyZpRtZeLH-73">
          <mxGeometry width="50" height="50" relative="1" as="geometry">
            <mxPoint x="-140" y="220" as="sourcePoint" />
            <mxPoint x="110" y="180" as="targetPoint" />
          </mxGeometry>
        </mxCell>
        <mxCell id="ssctevt2GrRyZpRtZeLH-76" value="1" style="text;html=1;align=center;verticalAlign=middle;resizable=0;points=[];autosize=1;" vertex="1" parent="1">
          <mxGeometry x="-220" y="280" width="20" height="20" as="geometry" />
        </mxCell>
        <mxCell id="ssctevt2GrRyZpRtZeLH-77" value="1" style="text;html=1;align=center;verticalAlign=middle;resizable=0;points=[];autosize=1;" vertex="1" parent="1">
          <mxGeometry x="-70" y="170" width="20" height="20" as="geometry" />
        </mxCell>
        <mxCell id="ssctevt2GrRyZpRtZeLH-78" value="商品" style="rounded=0;whiteSpace=wrap;html=1;" vertex="1" parent="1">
          <mxGeometry x="-350" y="80" width="80" height="40" as="geometry" />
        </mxCell>
        <mxCell id="ssctevt2GrRyZpRtZeLH-79" value="" style="endArrow=none;html=1;exitX=1;exitY=0.5;exitDx=0;exitDy=0;" edge="1" parent="1" source="ssctevt2GrRyZpRtZeLH-80">
          <mxGeometry width="50" height="50" relative="1" as="geometry">
            <mxPoint x="-140" y="220" as="sourcePoint" />
            <mxPoint x="100" y="170" as="targetPoint" />
          </mxGeometry>
        </mxCell>
        <mxCell id="ssctevt2GrRyZpRtZeLH-80" value="收藏" style="rhombus;whiteSpace=wrap;html=1;" vertex="1" parent="1">
          <mxGeometry x="-170" y="130" width="70" height="40" as="geometry" />
        </mxCell>
        <mxCell id="ssctevt2GrRyZpRtZeLH-81" value="1" style="text;html=1;align=center;verticalAlign=middle;resizable=0;points=[];autosize=1;" vertex="1" parent="1">
          <mxGeometry x="-50" y="140" width="20" height="20" as="geometry" />
        </mxCell>
        <mxCell id="ssctevt2GrRyZpRtZeLH-83" value="" style="endArrow=none;html=1;exitX=0;exitY=0.5;exitDx=0;exitDy=0;entryX=1;entryY=0.75;entryDx=0;entryDy=0;" edge="1" parent="1" source="ssctevt2GrRyZpRtZeLH-80" target="ssctevt2GrRyZpRtZeLH-78">
          <mxGeometry width="50" height="50" relative="1" as="geometry">
            <mxPoint x="-90" y="160" as="sourcePoint" />
            <mxPoint x="110" y="180" as="targetPoint" />
          </mxGeometry>
        </mxCell>
        <mxCell id="ssctevt2GrRyZpRtZeLH-84" value="n" style="text;html=1;align=center;verticalAlign=middle;resizable=0;points=[];autosize=1;" vertex="1" parent="1">
          <mxGeometry x="-220" y="110" width="20" height="20" as="geometry" />
        </mxCell>
        <mxCell id="ssctevt2GrRyZpRtZeLH-87" value="购买" style="rhombus;whiteSpace=wrap;html=1;" vertex="1" parent="1">
          <mxGeometry x="-150" y="70" width="70" height="40" as="geometry" />
        </mxCell>
        <mxCell id="ssctevt2GrRyZpRtZeLH-88" value="" style="endArrow=none;html=1;exitX=0.94;exitY=0.69;exitDx=0;exitDy=0;exitPerimeter=0;" edge="1" parent="1" source="ssctevt2GrRyZpRtZeLH-87">
          <mxGeometry width="50" height="50" relative="1" as="geometry">
            <mxPoint x="-90" y="160" as="sourcePoint" />
            <mxPoint x="100" y="170" as="targetPoint" />
          </mxGeometry>
        </mxCell>
        <mxCell id="ssctevt2GrRyZpRtZeLH-89" value="" style="endArrow=none;html=1;exitX=0;exitY=0.5;exitDx=0;exitDy=0;entryX=1;entryY=0.75;entryDx=0;entryDy=0;" edge="1" parent="1" source="ssctevt2GrRyZpRtZeLH-87" target="ssctevt2GrRyZpRtZeLH-78">
          <mxGeometry width="50" height="50" relative="1" as="geometry">
            <mxPoint x="-74.20000000000005" y="107.60000000000002" as="sourcePoint" />
            <mxPoint x="110" y="180" as="targetPoint" />
          </mxGeometry>
        </mxCell>
        <mxCell id="ssctevt2GrRyZpRtZeLH-90" value="1" style="text;html=1;align=center;verticalAlign=middle;resizable=0;points=[];autosize=1;" vertex="1" parent="1">
          <mxGeometry x="-20" y="100" width="20" height="20" as="geometry" />
        </mxCell>
        <mxCell id="ssctevt2GrRyZpRtZeLH-92" value="n" style="text;html=1;align=center;verticalAlign=middle;resizable=0;points=[];autosize=1;" vertex="1" parent="1">
          <mxGeometry x="-210" y="70" width="20" height="20" as="geometry" />
        </mxCell>
        <mxCell id="ssctevt2GrRyZpRtZeLH-93" value="订单" style="rounded=0;whiteSpace=wrap;html=1;" vertex="1" parent="1">
          <mxGeometry x="-140" y="-50" width="80" height="40" as="geometry" />
        </mxCell>
        <mxCell id="ssctevt2GrRyZpRtZeLH-95" value="" style="endArrow=none;html=1;" edge="1" parent="1" source="ssctevt2GrRyZpRtZeLH-96">
          <mxGeometry width="50" height="50" relative="1" as="geometry">
            <mxPoint x="30" y="90" as="sourcePoint" />
            <mxPoint x="110" y="150" as="targetPoint" />
          </mxGeometry>
        </mxCell>
        <mxCell id="ssctevt2GrRyZpRtZeLH-96" value="修改" style="rhombus;whiteSpace=wrap;html=1;" vertex="1" parent="1">
          <mxGeometry x="-45" y="40" width="70" height="40" as="geometry" />
        </mxCell>
        <mxCell id="ssctevt2GrRyZpRtZeLH-97" value="" style="endArrow=none;html=1;" edge="1" parent="1" source="ssctevt2GrRyZpRtZeLH-93" target="ssctevt2GrRyZpRtZeLH-96">
          <mxGeometry width="50" height="50" relative="1" as="geometry">
            <mxPoint x="15.555555555555657" y="81.11111111111109" as="sourcePoint" />
            <mxPoint x="140" y="170" as="targetPoint" />
          </mxGeometry>
        </mxCell>
        <mxCell id="ssctevt2GrRyZpRtZeLH-98" value="1" style="text;html=1;align=center;verticalAlign=middle;resizable=0;points=[];autosize=1;" vertex="1" parent="1">
          <mxGeometry x="50" y="80" width="20" height="20" as="geometry" />
        </mxCell>
        <mxCell id="ssctevt2GrRyZpRtZeLH-99" value="n" style="text;html=1;align=center;verticalAlign=middle;resizable=0;points=[];autosize=1;" vertex="1" parent="1">
          <mxGeometry x="-90" y="20" width="20" height="20" as="geometry" />
        </mxCell>
        <mxCell id="ssctevt2GrRyZpRtZeLH-100" value="地址" style="rounded=0;whiteSpace=wrap;html=1;" vertex="1" parent="1">
          <mxGeometry x="30" y="-60" width="80" height="40" as="geometry" />
        </mxCell>
        <mxCell id="ssctevt2GrRyZpRtZeLH-101" value="新增" style="rhombus;whiteSpace=wrap;html=1;" vertex="1" parent="1">
          <mxGeometry x="40" y="30" width="70" height="40" as="geometry" />
        </mxCell>
        <mxCell id="ssctevt2GrRyZpRtZeLH-104" value="" style="endArrow=none;html=1;entryX=0.5;entryY=0;entryDx=0;entryDy=0;exitX=0.5;exitY=1;exitDx=0;exitDy=0;" edge="1" parent="1" source="ssctevt2GrRyZpRtZeLH-101" target="ssctevt2GrRyZpRtZeLH-1">
          <mxGeometry width="50" height="50" relative="1" as="geometry">
            <mxPoint x="15.555555555555657" y="81.11111111111109" as="sourcePoint" />
            <mxPoint x="140" y="170" as="targetPoint" />
          </mxGeometry>
        </mxCell>
        <mxCell id="ssctevt2GrRyZpRtZeLH-105" value="修改" style="rhombus;whiteSpace=wrap;html=1;" vertex="1" parent="1">
          <mxGeometry x="120" y="10" width="70" height="40" as="geometry" />
        </mxCell>
        <mxCell id="ssctevt2GrRyZpRtZeLH-106" value="" style="endArrow=none;html=1;entryX=0.5;entryY=0;entryDx=0;entryDy=0;exitX=0.5;exitY=1;exitDx=0;exitDy=0;" edge="1" parent="1" source="ssctevt2GrRyZpRtZeLH-105" target="ssctevt2GrRyZpRtZeLH-1">
          <mxGeometry width="50" height="50" relative="1" as="geometry">
            <mxPoint x="85" y="80" as="sourcePoint" />
            <mxPoint x="150" y="160" as="targetPoint" />
          </mxGeometry>
        </mxCell>
        <mxCell id="ssctevt2GrRyZpRtZeLH-107" value="" style="endArrow=none;html=1;entryX=0.5;entryY=0;entryDx=0;entryDy=0;exitX=0.5;exitY=1;exitDx=0;exitDy=0;" edge="1" parent="1" source="ssctevt2GrRyZpRtZeLH-100" target="ssctevt2GrRyZpRtZeLH-101">
          <mxGeometry width="50" height="50" relative="1" as="geometry">
            <mxPoint x="85" y="80" as="sourcePoint" />
            <mxPoint x="150" y="160" as="targetPoint" />
          </mxGeometry>
        </mxCell>
        <mxCell id="ssctevt2GrRyZpRtZeLH-108" value="" style="endArrow=none;html=1;entryX=0.5;entryY=0;entryDx=0;entryDy=0;" edge="1" parent="1" target="ssctevt2GrRyZpRtZeLH-105">
          <mxGeometry width="50" height="50" relative="1" as="geometry">
            <mxPoint x="70" y="-20" as="sourcePoint" />
            <mxPoint x="85" y="40" as="targetPoint" />
          </mxGeometry>
        </mxCell>
        <mxCell id="ssctevt2GrRyZpRtZeLH-109" value="1" style="text;html=1;align=center;verticalAlign=middle;resizable=0;points=[];autosize=1;" vertex="1" parent="1">
          <mxGeometry x="90" y="80" width="20" height="20" as="geometry" />
        </mxCell>
        <mxCell id="ssctevt2GrRyZpRtZeLH-110" value="1" style="text;html=1;align=center;verticalAlign=middle;resizable=0;points=[];autosize=1;" vertex="1" parent="1">
          <mxGeometry x="155" y="80" width="20" height="20" as="geometry" />
        </mxCell>
        <mxCell id="ssctevt2GrRyZpRtZeLH-111" value="n" style="text;html=1;align=center;verticalAlign=middle;resizable=0;points=[];autosize=1;" vertex="1" parent="1">
          <mxGeometry x="40" y="-10" width="20" height="20" as="geometry" />
        </mxCell>
        <mxCell id="ssctevt2GrRyZpRtZeLH-112" value="n" style="text;html=1;align=center;verticalAlign=middle;resizable=0;points=[];autosize=1;" vertex="1" parent="1">
          <mxGeometry x="120" y="-30" width="20" height="20" as="geometry" />
        </mxCell>
        <mxCell id="ssctevt2GrRyZpRtZeLH-113" value="拥有" style="rhombus;whiteSpace=wrap;html=1;" vertex="1" parent="1">
          <mxGeometry x="210" y="80" width="70" height="40" as="geometry" />
        </mxCell>
        <mxCell id="ssctevt2GrRyZpRtZeLH-114" value="" style="endArrow=none;html=1;entryX=1;entryY=0;entryDx=0;entryDy=0;" edge="1" parent="1" target="ssctevt2GrRyZpRtZeLH-1">
          <mxGeometry width="50" height="50" relative="1" as="geometry">
            <mxPoint x="230" y="110" as="sourcePoint" />
            <mxPoint x="150" y="160" as="targetPoint" />
          </mxGeometry>
        </mxCell>
        <mxCell id="ssctevt2GrRyZpRtZeLH-115" value="" style="endArrow=none;html=1;entryX=1;entryY=0;entryDx=0;entryDy=0;exitX=0;exitY=0.5;exitDx=0;exitDy=0;" edge="1" parent="1" source="ssctevt2GrRyZpRtZeLH-2" target="ssctevt2GrRyZpRtZeLH-113">
          <mxGeometry width="50" height="50" relative="1" as="geometry">
            <mxPoint x="230.01000000000022" y="120" as="sourcePoint" />
            <mxPoint x="190" y="160" as="targetPoint" />
          </mxGeometry>
        </mxCell>
        <mxCell id="ssctevt2GrRyZpRtZeLH-116" value="1" style="text;html=1;align=center;verticalAlign=middle;resizable=0;points=[];autosize=1;" vertex="1" parent="1">
          <mxGeometry x="190" y="110" width="20" height="20" as="geometry" />
        </mxCell>
        <mxCell id="ssctevt2GrRyZpRtZeLH-117" value="n" style="text;html=1;align=center;verticalAlign=middle;resizable=0;points=[];autosize=1;" vertex="1" parent="1">
          <mxGeometry x="290" y="50" width="20" height="20" as="geometry" />
        </mxCell>
      </root>
    </mxGraphModel>
  </diagram>
</mxfile>
